<svg width="150" height="151" viewBox="0 0 150 151" fill="none" xmlns="http://www.w3.org/2000/svg">
<rect x="33" y="22" width="84" height="73" fill="white"/>
<path d="M62 40H84L84.5 149.5L62 149V40Z" fill="white"/>
<path d="M75.0005 0.348877C33.5793 0.348877 0 33.9282 0 75.3493C0 112.499 27.0391 143.266 62.4919 149.223V90.9965H44.3996V70.043H62.4919V54.5927C62.4919 36.6659 73.441 26.8968 89.4353 26.8968C97.0956 26.8968 103.679 27.4676 105.59 27.719V46.4573L94.4965 46.4627C85.8002 46.4627 84.1235 50.5943 84.1235 56.6594V70.0322H104.874L102.168 90.9857H84.1235V149.724C121.231 145.208 150 113.658 150 75.3279C150 33.9282 116.421 0.348877 75.0005 0.348877Z" fill="#010002"/>
<path d="M62 126H86L85 149L62.5 148.343L62 126Z" fill="#010002"/>
<path d="M83.5 149.5C77.7904 150.642 67 150 61.4998 148.5C55.9997 147 62.9998 147.091 62.9998 147.091L86.001 147.091L85.5 148.5C85.5 148.5 89.2096 148.358 83.5 149.5Z" stroke="black"/>
<path d="M64 148.5L84 148L83.5 149.5L75 150L66.5 149.5L64 148.5Z" fill="#010002"/>
</svg>
