<svg width="150" height="150" viewBox="0 0 150 150" fill="none" xmlns="http://www.w3.org/2000/svg">
<rect x="22" y="29" width="102" height="93" fill="white"/>
<path d="M89.3555 75C89.3555 82.9285 82.9285 89.3555 75 89.3555C67.0715 89.3555 60.6445 82.9285 60.6445 75C60.6445 67.0715 67.0715 60.6445 75 60.6445C82.9285 60.6445 89.3555 67.0715 89.3555 75Z" fill="black"/>
<path d="M108.572 49.601C107.882 47.731 106.781 46.0384 105.351 44.6491C103.962 43.2186 102.27 42.1177 100.399 41.4276C98.8815 40.8382 96.6019 40.1367 92.403 39.9456C87.8609 39.7385 86.499 39.6938 75 39.6938C63.4998 39.6938 62.138 39.7373 57.597 39.9445C53.3981 40.1367 51.1173 40.8382 49.601 41.4276C47.7299 42.1177 46.0373 43.2186 44.6491 44.6491C43.2186 46.0384 42.1177 47.7299 41.4265 49.601C40.8371 51.1185 40.1356 53.3993 39.9445 57.5981C39.7373 62.1391 39.6927 63.501 39.6927 75.0011C39.6927 86.5002 39.7373 87.862 39.9445 92.4042C40.1356 96.603 40.8371 98.8827 41.4265 100.4C42.1177 102.271 43.2175 103.963 44.648 105.352C46.0373 106.783 47.7287 107.883 49.5998 108.574C51.1173 109.164 53.3981 109.866 57.597 110.057C62.138 110.264 63.4987 110.307 74.9989 110.307C86.5002 110.307 87.862 110.264 92.4019 110.057C96.6007 109.866 98.8815 109.164 100.399 108.574C104.155 107.125 107.124 104.156 108.572 100.4C109.162 98.8827 109.863 96.603 110.056 92.4042C110.263 87.862 110.306 86.5002 110.306 75.0011C110.306 63.501 110.263 62.1391 110.056 57.5981C109.864 53.3993 109.163 51.1185 108.572 49.601ZM75 97.1146C62.7857 97.1146 52.8843 87.2143 52.8843 75C52.8843 62.7857 62.7857 52.8854 75 52.8854C87.2131 52.8854 97.1146 62.7857 97.1146 75C97.1146 87.2143 87.2131 97.1146 75 97.1146ZM97.9889 57.1793C95.1347 57.1793 92.8207 54.8653 92.8207 52.0111C92.8207 49.157 95.1347 46.843 97.9889 46.843C100.843 46.843 103.157 49.157 103.157 52.0111C103.156 54.8653 100.843 57.1793 97.9889 57.1793Z" fill="black"/>
<path d="M75 0C33.585 0 0 33.585 0 75C0 116.415 33.585 150 75 150C116.415 150 150 116.415 150 75C150 33.585 116.415 0 75 0ZM117.807 92.7555C117.598 97.34 116.869 100.47 115.805 103.21C113.568 108.995 108.995 113.568 103.21 115.805C100.471 116.869 97.34 117.597 92.7567 117.807C88.1641 118.016 86.697 118.066 75.0011 118.066C63.3041 118.066 61.8382 118.016 57.2445 117.807C52.6611 117.597 49.53 116.869 46.7915 115.805C43.9167 114.724 41.3143 113.029 39.1628 110.837C36.9724 108.687 35.2776 106.083 34.1961 103.21C33.1318 100.471 32.4028 97.34 32.1945 92.7567C31.9828 88.163 31.9336 86.6959 31.9336 75C31.9336 63.3041 31.9828 61.837 32.1934 57.2445C32.4017 52.66 33.1295 49.53 34.1938 46.7903C35.2753 43.9167 36.9713 41.3132 39.1628 39.1628C41.3132 36.9713 43.9167 35.2764 46.7903 34.1949C49.53 33.1306 52.66 32.4028 57.2445 32.1934C61.837 31.9839 63.3041 31.9336 75 31.9336C86.6959 31.9336 88.163 31.9839 92.7555 32.1945C97.34 32.4028 100.47 33.1306 103.21 34.1938C106.083 35.2753 108.687 36.9713 110.838 39.1628C113.029 41.3143 114.725 43.9167 115.805 46.7903C116.87 49.53 117.598 52.66 117.808 57.2445C118.017 61.837 118.066 63.3041 118.066 75C118.066 86.6959 118.017 88.163 117.807 92.7555Z" fill="black"/>
</svg>
