<svg width="150" height="150" viewBox="0 0 150 150" fill="none" xmlns="http://www.w3.org/2000/svg">
<rect x="24" y="29" width="106" height="97" fill="white"/>
<path d="M75.0187 0H74.9813C33.6281 0 0 33.6375 0 75C0 91.4062 5.2875 106.613 14.2781 118.959L4.93125 146.822L33.7594 137.606C45.6188 145.463 59.7656 150 75.0187 150C116.372 150 150 116.353 150 75C150 33.6469 116.372 0 75.0187 0ZM118.659 105.909C116.85 111.019 109.669 115.256 103.941 116.494C100.022 117.328 94.9031 117.994 77.6719 110.85C55.6312 101.719 41.4375 79.3219 40.3313 77.8687C39.2719 76.4156 31.425 66.0094 31.425 55.2469C31.425 44.4844 36.8906 39.2438 39.0938 36.9938C40.9031 35.1469 43.8937 34.3031 46.7625 34.3031C47.6906 34.3031 48.525 34.35 49.275 34.3875C51.4781 34.4812 52.5844 34.6125 54.0375 38.0906C55.8469 42.45 60.2531 53.2125 60.7781 54.3188C61.3125 55.425 61.8469 56.925 61.0969 58.3781C60.3938 59.8781 59.775 60.5437 58.6687 61.8187C57.5625 63.0937 56.5125 64.0688 55.4062 65.4375C54.3937 66.6281 53.25 67.9031 54.525 70.1063C55.8 72.2625 60.2062 79.4531 66.6937 85.2281C75.0656 92.6812 81.8531 95.0625 84.2812 96.075C86.0906 96.825 88.2469 96.6469 89.5687 95.2406C91.2469 93.4313 93.3187 90.4313 95.4281 87.4781C96.9281 85.3594 98.8219 85.0969 100.809 85.8469C102.834 86.55 113.55 91.8469 115.753 92.9437C117.956 94.05 119.409 94.575 119.944 95.5031C120.469 96.4313 120.469 100.791 118.659 105.909Z" fill="black"/>
</svg>
